<svg width="50" height="50" viewBox="0 0 50 50" fill="none" xmlns="http://www.w3.org/2000/svg">
<circle cx="25" cy="25" r="25" fill="#14D4B1"/>
<path fill-rule="evenodd" clip-rule="evenodd" d="M17 48.6926V45.5759C16.1292 45.2331 15.152 44.7349 14.2399 44.0825C12.9245 43.1416 11.5872 41.7651 11.0578 39.9121C10.3567 37.4584 10.4204 35.0136 10.474 32.9601L10.474 32.96C10.4776 32.8186 10.4813 32.679 10.4846 32.5414C9.24349 31.8999 8.30496 30.7153 8.08093 29.2964C7.80372 27.5407 8.65243 25.8584 10.457 24.661C10.3786 21.8444 10.8059 17.7219 13.2644 14.1496C15.4387 10.9901 20.1999 7.99994 25.5 8C28.1365 8.00003 30.5281 8.38572 32.6091 9.38667C34.7156 10.3999 36.4079 11.9979 37.699 14.2553C39.5481 17.4881 39.7601 21.3112 39.9111 24.0348L39.9163 24.1287C40.4133 24.2835 40.8645 24.5349 41.2443 24.8279C42.0352 25.438 42.669 26.3354 42.9472 27.3553C43.233 28.4032 43.1459 29.6151 42.4155 30.6981C41.8913 31.4753 41.1034 32.0868 40.0909 32.5297C40.2622 34.5689 40.4551 37.3398 39.8999 39.7714C39.5567 41.2743 38.905 42.7787 37.688 43.9486C36.7318 44.8676 35.5066 45.5034 34 45.8113V48.331C33.0279 48.7063 32.0265 49.0225 31 49.2754V45.9999H20V49.4999C18.9759 49.292 17.9745 49.0215 17 48.6926ZM27.1883 18.1946C24.0031 18.714 20.2741 18.1084 16.5436 14.8582C18.455 12.83 21.8232 11 25.5 11C27.8634 11 29.7675 11.3489 31.3087 12.0902C32.5239 12.6747 33.5725 13.5313 34.4633 14.7621C32.7776 16.2048 30.1835 17.7061 27.1883 18.1946ZM27.6711 21.1554C30.9847 20.6151 33.8524 19.0779 35.8835 17.4764C36.6315 19.585 36.7705 21.8628 36.8981 23.9999H13.4485C13.4534 22.0417 13.7646 19.6178 14.8573 17.3635C19.1845 21.0004 23.7028 21.8026 27.6711 21.1554ZM39.9283 29.0206C39.748 29.2879 39.3088 29.6913 38.2892 29.9999L32.5 30L31 30V31.5C31 31.9655 31.0175 32.4979 31.0342 33.004L31.0342 33.0041V33.0042C31.0445 33.3163 31.0544 33.6184 31.0597 33.8888C31.075 34.6684 31.0591 35.3364 30.9697 35.8828C30.8782 36.4418 30.7352 36.7045 30.6318 36.8179C30.5802 36.8746 30.4558 37 30 37C29.2128 37 28.841 36.8286 28.6598 36.6941C28.485 36.5643 28.3192 36.3444 28.1923 35.9003C28.0592 35.4346 27.999 34.8252 27.9841 34.0416C27.975 33.5649 27.9819 33.111 27.9892 32.6246V32.6245V32.6244C27.9945 32.2734 28 31.9055 28 31.4999V29.9999H26.5H12.1726C11.5535 29.8266 11.1212 29.3161 11.0442 28.8285C10.9916 28.495 11.059 27.7496 12.374 26.9999H38.5H38.6485L38.7941 26.9708C38.8775 26.9541 39.1021 26.9642 39.4119 27.2032C39.7148 27.4369 39.956 27.7896 40.0529 28.1447C40.1421 28.4717 40.1042 28.7598 39.9283 29.0206ZM13.4723 33.265L13.4786 32.9999H24.9839C24.9798 33.3781 24.9781 33.754 24.9846 34.0988C25.001 34.9558 25.0658 35.8777 25.3077 36.7245C25.5558 37.5929 26.015 38.4669 26.8715 39.1028C27.7215 39.7338 28.7872 40 30 40C31.1442 40 32.1323 39.6254 32.8494 38.8384C33.5148 38.108 33.7968 37.1832 33.9303 36.3672C34.0659 35.5386 34.0751 34.6441 34.0591 33.83C34.0533 33.5355 34.0449 33.2617 34.0361 33L37.1171 32.9999C37.2775 34.9857 37.4106 37.1964 36.9752 39.1035C36.7142 40.2465 36.2721 41.1483 35.609 41.7857C34.9722 42.3978 34.0059 42.8875 32.4482 42.9999H18.7121C17.9608 42.7704 16.9217 42.3123 15.9852 41.6424C14.9589 40.9083 14.2129 40.0349 13.9423 39.0879C13.3801 37.1201 13.4245 35.2646 13.4723 33.265Z" fill="white"/>
</svg>
